<svg xmlns="http://www.w3.org/2000/svg" viewBox="0 0 320 72" fill="none">
  <defs>
    <linearGradient id="grad" x1="0%" y1="0%" x2="100%" y2="100%">
      <stop offset="0%" stop-color="#7c3aed"/>
      <stop offset="100%" stop-color="#f43f5e"/>
    </linearGradient>
  </defs>
  <rect x="0" y="4" width="64" height="64" rx="18" fill="url(#grad)"/>
  <rect x="0" y="4" width="64" height="64" rx="18" fill="white" opacity="0.06"/>
  <circle cx="32" cy="18" r="4" fill="white" opacity="0.95"/>
  <circle cx="16" cy="36" r="4" fill="white" opacity="0.95"/>
  <circle cx="48" cy="36" r="4" fill="white" opacity="0.95"/>
  <circle cx="32" cy="54" r="4" fill="white" opacity="0.95"/>
  <circle cx="32" cy="36" r="2.5" fill="white" opacity="0.7"/>
  <line x1="32" y1="18" x2="16" y2="36" stroke="white" stroke-width="1.5" opacity="0.45"/>
  <line x1="32" y1="18" x2="48" y2="36" stroke="white" stroke-width="1.5" opacity="0.45"/>
  <line x1="16" y1="36" x2="32" y2="54" stroke="white" stroke-width="1.5" opacity="0.45"/>
  <line x1="48" y1="36" x2="32" y2="54" stroke="white" stroke-width="1.5" opacity="0.45"/>
  <line x1="16" y1="36" x2="48" y2="36" stroke="white" stroke-width="1.5" opacity="0.3"/>
  <line x1="32" y1="36" x2="16" y2="36" stroke="white" stroke-width="1" opacity="0.4"/>
  <line x1="32" y1="36" x2="48" y2="36" stroke="white" stroke-width="1" opacity="0.4"/>
  <line x1="32" y1="36" x2="32" y2="18" stroke="white" stroke-width="1" opacity="0.4"/>
  <line x1="32" y1="36" x2="32" y2="54" stroke="white" stroke-width="1" opacity="0.4"/>
  <text x="80" y="40"
    font-family="-apple-system, BlinkMacSystemFont, 'Segoe UI', Roboto, sans-serif"
    font-size="22" font-weight="800" letter-spacing="-0.5" fill="#120d1e">WorkFace</text>
  <text x="80" y="58"
    font-family="-apple-system, BlinkMacSystemFont, 'Segoe UI', Roboto, sans-serif"
    font-size="11" font-weight="600" letter-spacing="3.5" fill="#7c3aed">RECOGNITION</text>
  <rect x="80" y="44" width="228" height="2" rx="1" fill="url(#grad)" opacity="0.15"/>
</svg>
